#tb 0: 1/10
#media_type 0: video
#codec_id 0: rawvideo
#dimensions 0: 1280x1024
#sar 0: 0/1
0,          0,          0,        1,  3932160, 0x109148ee
0,          1,          1,        1,  3932160, 0xa87b7bff
0,          2,          2,        1,  3932160, 0x00e14d16
0,          3,          3,        1,  3932160, 0xbf8d7871
0,          4,          4,        1,  3932160, 0x998ded98
0,          5,          5,        1,  3932160, 0xe0d1328f
0,          6,          6,        1,  3932160, 0xde7e69a0
0,          7,          7,        1,  3932160, 0x5355cde3
0,          8,          8,        1,  3932160, 0x4b3c6b11
0,          9,          9,        1,  3932160, 0x19d8366f
0,         10,         10,        1,  3932160, 0xf80f3663
0,         14,         14,        1,  3932160, 0xe2dc1cc7
0,         30,         30,        1,  3932160, 0x3ae51cc7
0,         31,         31,        1,  3932160, 0x10ecd14c
0,         32,         32,        1,  3932160, 0xda0f1d1f
0,         33,         33,        1,  3932160, 0x50bd3602
0,         34,         34,        1,  3932160, 0xad2083ba
0,         35,         35,        1,  3932160, 0xa5b388bd
0,         36,         36,        1,  3932160, 0x37ae6d4f
0,         37,         37,        1,  3932160, 0x436ee825
0,         38,         38,        1,  3932160, 0x6c2ec178
0,         39,         39,        1,  3932160, 0x6c3f389b
0,         40,         40,        1,  3932160, 0x3c0421c1
0,         41,         41,        1,  3932160, 0x861b0449
0,         42,         42,        1,  3932160, 0x41640723
